<svg width="1440" height="879" viewBox="0 0 1440 879" fill="none" xmlns="http://www.w3.org/2000/svg">
<g clip-path="url(#clip0_267_3)">
<path fill-rule="evenodd" clip-rule="evenodd" d="M0 459H1440V881H0V459ZM556 520C556 492.386 578.386 470 606 470H631C658.614 470 681 492.386 681 520V845H556V520ZM456 470C428.386 470 406 492.386 406 520V845H531V520C531 492.386 508.614 470 481 470H456ZM256 520C256 492.386 278.386 470 306 470H331C358.614 470 381 492.386 381 520V845H256V520ZM756 470C728.386 470 706 492.386 706 520V845H831V520C831 492.386 808.614 470 781 470H756ZM856 520C856 492.386 878.386 470 906 470H931C958.614 470 981 492.386 981 520V845H856V520ZM1056 470C1028.39 470 1006 492.386 1006 520V845H1131V520C1131 492.386 1108.61 470 1081 470H1056Z" fill="#17696C"/>
</g>
<defs>
<clipPath id="clip0_267_3">
<rect width="1440" height="879" fill="white"/>
</clipPath>
</defs>
</svg>
